<?xml version="1.0" standalone="no"?>
<!DOCTYPE svg PUBLIC "-//W3C//DTD SVG 20010904//EN"
 "http://www.w3.org/TR/2001/REC-SVG-20010904/DTD/svg10.dtd">
<svg version="1.0" xmlns="http://www.w3.org/2000/svg"
 width="512.000000pt" height="512.000000pt" viewBox="0 0 512.000000 512.000000"
 preserveAspectRatio="xMidYMid meet">
<metadata>
Created by potrace 1.15, written by Peter Selinger 2001-2017
</metadata>
<g transform="translate(0.000000,512.000000) scale(0.100000,-0.100000)"
fill="#000000" stroke="none">
<path d="M1760 4304 c-359 -61 -620 -196 -848 -439 -138 -147 -242 -324 -307
-518 -47 -142 -66 -241 -73 -392 l-7 -130 -58 -7 c-71 -9 -148 -49 -193 -101
-78 -92 -86 -241 -19 -332 l23 -31 -29 -16 c-27 -16 -29 -22 -29 -76 0 -84 24
-153 79 -225 l48 -63 -48 -52 c-140 -152 -92 -392 97 -479 49 -22 53 -27 63
-72 54 -255 270 -476 529 -542 73 -18 124 -19 1516 -19 1590 0 1495 -4 1620
63 152 80 273 271 301 473 l7 51 66 7 c128 13 229 88 272 202 35 95 21 207
-36 281 l-28 36 24 16 c109 71 180 199 180 322 0 69 -24 89 -106 89 l-63 0 27
51 c52 101 39 233 -32 315 -43 50 -122 93 -184 101 l-49 5 -6 120 c-15 279
-93 511 -249 744 -197 295 -507 506 -878 597 -82 20 -112 21 -835 23 -412 1
-761 0 -775 -2z m376 -149 c37 -14 115 -50 175 -81 94 -49 107 -59 99 -75 -26
-48 1 -109 47 -109 32 0 63 17 63 35 0 26 17 17 89 -46 232 -200 425 -527 515
-873 14 -52 28 -115 31 -140 l7 -46 -1252 0 -1253 0 6 123 c15 345 151 645
399 883 210 201 452 311 763 348 17 1 78 4 137 5 93 1 117 -2 174 -24z m1064
-1470 c0 -50 -38 -146 -73 -184 -12 -13 -40 -35 -62 -50 l-40 -26 -465 0 -465
0 -40 26 c-22 15 -50 37 -62 50 -35 38 -73 134 -73 184 l0 45 640 0 640 0 0
-45z m1550 -515 c-48 -95 -135 -149 -238 -150 -81 0 -121 20 -193 99 -35 38
-64 61 -77 61 -13 0 -48 -27 -89 -68 -74 -74 -114 -92 -199 -92 -70 1 -131 31
-195 100 -34 36 -65 60 -77 60 -13 0 -48 -27 -89 -68 -74 -74 -114 -92 -199
-92 -72 0 -141 36 -198 104 -58 67 -85 72 -125 25 -84 -100 -134 -128 -226
-129 -84 0 -147 31 -208 103 -67 79 -89 77 -155 -10 -98 -127 -302 -123 -400
7 -19 25 -43 49 -53 54 -30 14 -63 -3 -101 -54 -73 -97 -207 -128 -317 -74
-28 15 -64 42 -79 62 -72 93 -91 95 -159 15 -61 -71 -124 -103 -209 -103 -83
0 -154 36 -201 101 -55 77 -101 76 -155 -1 -45 -64 -101 -94 -186 -98 -78 -5
-116 5 -170 45 -35 26 -76 83 -87 121 l-6 22 2206 0 2205 0 -20 -40z m-2717
-800 l1419 0 -7 -42 c-22 -135 -136 -263 -312 -353 l-70 -36 -1009 3 -1009 3
-65 23 c-151 55 -280 166 -342 293 -40 83 -58 143 -37 122 10 -10 310 -13
1432 -13z"/>
</g>
</svg>
